<?xml version="1.0" ?><!DOCTYPE svg  PUBLIC '-//W3C//DTD SVG 1.1//EN'  'http://www.w3.org/Graphics/SVG/1.1/DTD/svg11.dtd'><svg height="100%" style="fill-rule:evenodd;clip-rule:evenodd;stroke-linejoin:round;stroke-miterlimit:2;" version="1.1" viewBox="0 0 512 512" width="100%" xml:space="preserve" xmlns="http://www.w3.org/2000/svg" xmlns:serif="http://www.serif.com/" xmlns:xlink="http://www.w3.org/1999/xlink"><path d="M256,0.003c-144.225,0 -256,105.645 -256,248.325c0,74.637 30.596,139.126 80.406,183.682c4.172,3.76 6.696,8.962 6.902,14.577l1.391,45.534c0.463,14.525 15.452,23.951 28.742,18.131l50.788,-22.407c4.326,-1.905 9.117,-2.266 13.649,-1.03c23.334,6.439 48.213,9.839 74.122,9.839c144.225,0 256,-105.646 256,-248.326c0,-142.68 -111.775,-248.325 -256,-248.325Zm-153.703,320.953l75.203,-119.295c11.95,-18.955 37.602,-23.694 55.527,-10.25l59.802,44.864c5.511,4.121 13.032,4.069 18.492,-0.051l80.766,-61.296c10.765,-8.19 24.879,4.739 17.616,16.174l-75.152,119.243c-11.95,18.956 -37.601,23.694 -55.526,10.251l-59.802,-44.865c-5.512,-4.121 -13.032,-4.069 -18.492,0.052l-80.818,61.347c-10.765,8.19 -24.879,-4.739 -17.616,-16.174Z" id="Bubble_Solid_3_"/></svg>